HIERARCHY
ROOT root
{
	OFFSET	0	13.1	24.9
	CHANNELS 6  Xposition Yposition Zposition Xrotation Yrotation Zrotation
	JOINT spine_1
	{
		OFFSET	0	9.99999	0
		CHANNELS 3  Xrotation Yrotation Zrotation
		JOINT spine_2
		{
			OFFSET	0	112	-10
			CHANNELS 3  Xrotation Yrotation Zrotation
			JOINT spine_3
			{
				OFFSET	0	206.5	19.3
				CHANNELS 3  Xrotation Yrotation Zrotation
				JOINT spine_4
				{
					OFFSET	0	110.4	14.6
					CHANNELS 3  Xrotation Yrotation Zrotation
					JOINT neck_1
					{
						OFFSET	0	71.8	-50.3
						CHANNELS 3  Xrotation Yrotation Zrotation
						JOINT neck_2
						{
							OFFSET	0	86.2	-25.8
							CHANNELS 3  Xrotation Yrotation Zrotation
							JOINT head_ee
							{
								OFFSET	0	179.8	-8.7
								CHANNELS 3  Xrotation Yrotation Zrotation
								End Site
								{
									OFFSET	1	0	0
								}
							}
						}
					}
					JOINT left_clavicle
					{
						OFFSET	-43.2	22.4	-70.8
						CHANNELS 3  Xrotation Yrotation Zrotation
						JOINT left_shoulder
						{
							OFFSET	-93.9	-5.79999	48.7
							CHANNELS 3  Xrotation Yrotation Zrotation
							JOINT left_elbow
							{
								OFFSET	-291.4	-30.8	15.2
								CHANNELS 3  Xrotation Yrotation Zrotation
								JOINT left_lowarm_twist
								{
									OFFSET	-110.7	-3.89999	13.6
									CHANNELS 3  Xrotation Yrotation Zrotation
									JOINT left_hand
									{
										OFFSET	-110.7	-3.89999	13.6
										CHANNELS 3  Xrotation Yrotation Zrotation
										JOINT left_ee
										{
											OFFSET	-80.8	-5.10001	12.1
											CHANNELS 3  Xrotation Yrotation Zrotation
											End Site
											{
												OFFSET	1	0	0
											}
										}
									}
								}
							}
						}
					}
					JOINT right_clavicle
					{
						OFFSET	43.2	22.4	-70.8
						CHANNELS 3  Xrotation Yrotation Zrotation
						JOINT right_shoulder
						{
							OFFSET	93.9	-5.79999	48.7
							CHANNELS 3  Xrotation Yrotation Zrotation
							JOINT right_elbow
							{
								OFFSET	291.4	-30.8	15.2
								CHANNELS 3  Xrotation Yrotation Zrotation
								JOINT right_lowarm_twist
								{
									OFFSET	110.7	-3.89999	13.6
									CHANNELS 3  Xrotation Yrotation Zrotation
									JOINT right_hand
									{
										OFFSET	110.7	-3.89999	13.6
										CHANNELS 3  Xrotation Yrotation Zrotation
										JOINT right_ee
										{
											OFFSET	80.8	-5.10001	12.1
											CHANNELS 3  Xrotation Yrotation Zrotation
											End Site
											{
												OFFSET	1	0	0
											}
										}
									}
								}
							}
						}
					}
				}
			}
		}
	}
	JOINT left_hip
	{
		OFFSET	-82.8	-127.5	0.300001
		CHANNELS 3  Xrotation Yrotation Zrotation
		JOINT left_knee
		{
			OFFSET	-28.2	-396.7	2.2
			CHANNELS 3  Xrotation Yrotation Zrotation
			JOINT left_ankle
			{
				OFFSET	-11.7	-411.3	35.4
				CHANNELS 3  Xrotation Yrotation Zrotation
				JOINT left_toes
				{
					OFFSET	0	-60	-88.6
					CHANNELS 3  Xrotation Yrotation Zrotation
					JOINT left_foot_ee
					{
						OFFSET	-22.5	-16.5	-42.2
						CHANNELS 3  Xrotation Yrotation Zrotation
						End Site
						{
							OFFSET	1	0	0
						}
					}
				}
			}
		}
	}
	JOINT right_hip
	{
		OFFSET	82.8	-127.5	0.300001
		CHANNELS 3  Xrotation Yrotation Zrotation
		JOINT right_knee
		{
			OFFSET	28.2	-396.7	2.2
			CHANNELS 3  Xrotation Yrotation Zrotation
			JOINT right_ankle
			{
				OFFSET	11.7	-411.3	35.4
				CHANNELS 3  Xrotation Yrotation Zrotation
				JOINT right_toes
				{
					OFFSET	0	-60	-88.6
					CHANNELS 3  Xrotation Yrotation Zrotation
					JOINT right_foot_ee
					{
						OFFSET	22.5	-16.5	-42.2
						CHANNELS 3  Xrotation Yrotation Zrotation
						End Site
						{
							OFFSET	1	0	0
						}
					}
				}
			}
		}
	}
}
MOTION
Frames: 6
Frame Time: 0.02
3489.31 734.311 -522.13 -167.605 88.9104 171.799 -1.36435 -0.524944 -2.10013 -1.36198 -0.390275 -2.12926 -1.34502 0.116694 -2.16157 -1.35147 -0.226069 -2.15289 -6.66778 2.0977 6.5522 -6.54585 -0.883774 6.98655 -0.0 0.0 -0.0 12.1341 -19.6662 24.2652 -18.6575 -55.7131 36.8393 0.895783 -23.9287 0.189826 18.5441 0.276494 -2.34238 -0.365681 -8.20269 -5.96195 -0.0 0.0 -0.0 8.94739 -20.3803 -15.7295 -34.8717 27.5688 -49.7332 0.442352 12.36 -0.0478986 -6.19502 0.259027 -0.747989 -1.28242 5.87156 11.21 0.0 0.0 0.0 1.13109 -4.37958 -1.81113 -17.0182 0.319219 2.58252 0.277422 4.23246 -0.0406793 37.0924 -0.0 -0.0 -0.0 0.0 -0.0 19.7143 -24.0495 8.82896 -2.0887 -0.0803482 -0.310457 -13.1735 7.11487 -2.04915 1.3882 -0.0 -0.0 0.0 0.0 0.0 
3470.86 732.551 -525.617 -6.64772 89.1187 10.1502 -1.41124 -0.513766 -2.05072 -1.40898 -0.382261 -2.07924 -1.39273 0.11459 -2.11097 -1.39888 -0.220161 -2.10259 -6.52168 1.401 5.92687 -6.4202 -1.7334 6.22813 -0.0 0.0 -0.0 11.6349 -17.757 23.2401 -15.3094 -56.0087 37.7494 1.09056 -28.3785 0.275745 17.5213 0.281119 -2.21184 -0.683616 -10.8263 -9.25137 -0.0 0.0 -0.0 8.74019 -20.8521 -15.3416 -35.4886 26.4787 -50.6191 0.415839 11.64 -0.0423862 -5.65263 0.233128 -0.683651 -0.981633 6.20038 9.29229 0.0 0.0 0.0 -0.0801913 -3.62285 -2.14642 -16.5983 0.320629 2.5181 1.25361 5.59668 -0.183108 38.142 -0.0 -0.0 -0.0 0.0 -0.0 20.8641 -21.953 8.77136 -1.61949 -0.0632867 -0.240469 -14.7769 8.63414 -2.32039 2.10131 -0.0 -0.0 0.0 0.0 0.0 
3461.04 731.352 -527.418 -7.00024 88.309 9.90686 -1.4507 -0.434837 -1.90058 -1.44874 -0.31304 -1.92439 -1.43621 0.14718 -1.94411 -1.44145 -0.161643 -1.94296 -6.54704 0.649224 6.49022 -6.42181 -3.53552 6.65021 -0.0 0.0 -0.0 12.0584 -17.675 24.2132 -11.479 -55.8456 39.2963 1.14698 -29.6033 0.303089 16.8609 0.282868 -2.1275 -1.29152 -13.9228 -14.7543 -0.0 0.0 -0.0 8.42302 -20.191 -14.9351 -35.9057 26.1694 -52.3579 0.363822 10.2168 -0.0325241 -5.54948 0.228272 -0.671387 -0.699064 6.34067 7.42631 0.0 0.0 0.0 -0.858079 -2.21005 -1.32625 -16.215 0.321504 2.45929 3.63133 8.26257 -0.52648 37.0136 -0.0 -0.0 -0.0 0.0 -0.0 21.7075 -20.8679 8.91253 -1.49705 -0.0587397 -0.222229 -14.1938 8.38902 -2.22469 1.11252 -0.0 -0.0 0.0 0.0 0.0 
3451.65 727.377 -527.166 -6.64099 87.7082 8.8316 -1.21966 -0.40855 -1.78336 -1.21794 -0.294261 -1.80573 -1.207 0.130297 -1.8249 -1.21161 -0.159498 -1.82258 -6.52152 0.119083 6.62903 -6.38833 -4.62126 6.69011 -0.0 0.0 -0.0 11.896 -16.2476 23.9112 -8.58548 -55.7308 40.3137 1.35695 -33.907 0.413676 15.8783 0.283671 -2.002 -1.69027 -17.1956 -18.9043 -0.0 0.0 -0.0 8.14905 -20.1323 -14.5157 -37.2276 25.3994 -53.5073 0.387988 10.8797 -0.0369479 -5.83863 0.241941 -0.705742 -0.417175 7.57165 6.04083 0.0 0.0 0.0 -1.57726 -0.634882 -0.891587 -15.6169 0.322083 2.36754 6.41826 9.44282 -0.923263 36.6759 -0.0 -0.0 -0.0 0.0 -0.0 22.7695 -19.6099 9.72265 -1.3189 -0.0520546 -0.195705 -11.3625 8.38646 -1.77538 1.50561 -0.0 -0.0 0.0 0.0 0.0 
3437.6 729.551 -528.026 -6.28621 86.008 7.64136 -1.32691 -0.177404 -1.76409 -1.32518 -0.0648091 -1.7718 -1.32176 0.349314 -1.73824 -1.32597 0.0704527 -1.77158 -7.14526 0.250357 6.49002 -7.02022 -4.21461 6.53987 -0.0 0.0 -0.0 12.0535 -16.2605 24.2711 -5.3151 -55.9761 42.1577 1.44298 -35.5555 0.462695 15.2023 0.282974 -1.91566 -2.09914 -18.2352 -22.2251 -0.0 0.0 -0.0 7.72698 -20.5547 -13.8176 -37.4804 25.092 -54.1162 0.398357 11.1632 -0.0389303 -5.46518 0.22432 -0.66136 -0.267599 6.68184 4.64524 0.0 0.0 0.0 -2.31751 -0.429093 0.0762652 -15.9032 0.321925 2.41147 7.2228 10.8626 -1.03736 36.1507 -0.0 -0.0 -0.0 0.0 -0.0 23.5921 -18.67 9.85746 -0.75272 -0.0302613 -0.111549 -10.2717 9.10983 -1.60899 1.92709 -0.0 -0.0 0.0 0.0 0.0 
3429.93 725.341 -532.426 -6.98616 86.4358 8.08526 -1.21673 -0.315603 -1.69153 -1.21516 -0.207344 -1.70817 -1.20756 0.192409 -1.70992 -1.21163 -0.0800146 -1.71885 -6.55211 -0.215765 6.54482 -6.42085 -5.17657 6.53911 -0.0 0.0 -0.0 11.8816 -14.8243 23.9333 -3.54315 -55.6978 42.7649 1.58811 -38.1893 0.549796 14.9051 0.282345 -1.87771 -2.25964 -20.1752 -24.1478 -0.0 0.0 -0.0 7.83094 -21.1189 -13.9149 -38.2063 24.4864 -55.226 0.353814 9.94141 -0.0307725 -5.89919 0.244825 -0.712927 -0.225641 6.99363 4.49466 0.0 0.0 0.0 -2.87365 0.176621 -0.102318 -15.6032 0.322085 2.36543 9.32812 11.3759 -1.33136 35.9714 -0.0 -0.0 -0.0 0.0 -0.0 24.1881 -18.0214 9.70136 0.203739 0.00844327 0.0301253 -12.2126 7.38469 -1.90024 1.08242 -0.0 -0.0 0.0 0.0 0.0 
